<?xml version="1.0" encoding="utf-8"?>
<!-- Generator: Adobe Illustrator 25.2.1, SVG Export Plug-In . SVG Version: 6.00 Build 0)  -->
<svg version="1.1" xmlns="http://www.w3.org/2000/svg" xmlns:xlink="http://www.w3.org/1999/xlink" x="0px" y="0px" width="612px"
	 height="792px" viewBox="0 0 612 792" style="enable-background:new 0 0 612 792;" xml:space="preserve">
<style type="text/css">
	.st0{fill:none;stroke:#000000;stroke-width:0.7087;stroke-linecap:round;stroke-linejoin:round;stroke-miterlimit:10;}
	.st1{fill:none;stroke:#EE4424;stroke-miterlimit:10;}
	.st2{stroke:#EE4424;stroke-miterlimit:10;}
	.st3{fill:none;stroke:#000000;stroke-width:0.5;}
</style>
<g id="cut">
	<g>
		<g id="CIRCLE">
			<circle class="st0" cx="59.9" cy="614" r="4.3"/>
		</g>
		<g id="LWPOLYLINE">
			<rect x="17.4" y="625.3" class="st0" width="42.5" height="17"/>
		</g>
		<g id="CIRCLE_1_">
			<circle class="st0" cx="453.9" cy="614" r="4.3"/>
		</g>
		<g id="LWPOLYLINE_1_">
			<rect x="453.9" y="625.3" class="st0" width="42.5" height="17"/>
		</g>
		<g id="LWPOLYLINE_2_">
			<rect x="-25.1" y="602.6" class="st0" width="564.1" height="45.4"/>
		</g>
	</g>
	<g>
		<g id="CIRCLE_2_">
			<circle class="st0" cx="886.5" cy="431.9" r="7.1"/>
		</g>
		<g id="CIRCLE_3_">
			<circle class="st0" cx="886.5" cy="573.7" r="7.1"/>
		</g>
		<g id="LWPOLYLINE_7_">
			<polygon class="st0" points="906.4,596.3 855.4,596.3 855.4,531.1 838.3,531.1 838.3,474.4 855.4,474.4 855.4,409.2 906.4,409.2 
							"/>
		</g>
	</g>
	<g>
		<g id="CIRCLE_4_">
			<circle class="st0" cx="719.5" cy="364" r="4.3"/>
		</g>
		<g id="CIRCLE_5_">
			<circle class="st0" cx="915.1" cy="630.4" r="4.3"/>
		</g>
		<g id="CIRCLE_6_">
			<circle class="st0" cx="719.5" cy="630.4" r="4.3"/>
		</g>
		<g id="CIRCLE_7_">
			<circle class="st0" cx="915.1" cy="364" r="4.3"/>
		</g>
		<g id="LWPOLYLINE_8_">
			<polygon class="st0" points="733.7,364 719.5,378.1 719.5,616.2 733.7,630.4 900.9,630.4 915.1,616.2 923.6,616.2 923.6,647.4 
				692.6,647.4 692.6,549.6 701.1,549.6 701.1,346.9 940.6,346.9 940.6,415 923.6,415 923.6,378.1 915.1,378.1 900.9,364 			"/>
		</g>
	</g>
	<g>
		<g id="LWPOLYLINE_9_">
			<rect x="728" y="257" class="st0" width="184.3" height="73.7"/>
		</g>
		<g id="LWPOLYLINE_10_">
			<polygon class="st0" points="693.9,344.8 693.9,251.3 702.4,251.3 702.4,245.6 934.9,245.6 934.9,344.8 			"/>
		</g>
	</g>
	<g>
		<g id="CIRCLE_8_">
			<circle class="st0" cx="811.1" cy="291" r="7.1"/>
		</g>
		<g id="LWPOLYLINE_11_">
			<rect x="796.5" y="273.1" class="st0" width="35.9" height="35.9"/>
		</g>
	</g>
	<g>
		<g id="CIRCLE_9_">
			<circle class="st0" cx="773.2" cy="292.2" r="7.1"/>
		</g>
		<g id="LWPOLYLINE_12_">
			<rect x="751.9" y="274.3" class="st0" width="35.9" height="35.9"/>
		</g>
	</g>
	<g>
		<g id="CIRCLE_10_">
			<circle class="st0" cx="581.8" cy="349.8" r="4.3"/>
		</g>
		<g id="LWPOLYLINE_13_">
			<rect x="573.2" y="254.8" class="st0" width="17" height="42.5"/>
		</g>
		<g id="LWPOLYLINE_14_">
			<rect x="573.2" y="402.2" class="st0" width="17" height="42.5"/>
		</g>
		<g id="LWPOLYLINE_15_">
			<rect x="550.6" y="189.6" class="st0" width="138.9" height="314.6"/>
		</g>
	</g>
	<g>
		<g id="LWPOLYLINE_16_">
			<rect x="573.2" y="565.8" class="st0" width="17" height="42.5"/>
		</g>
		<g id="LWPOLYLINE_17_">
			<path class="st0" d="M550.6,506.2h138.9v42.5h-19.8c-3.9,0-7.1,3.2-7.1,7.1s3.2,7.1,7.1,7.1h19.8v85H550.6V506.2z"/>
		</g>
	</g>
	<g>
		<g id="CIRCLE_11_">
			<circle class="st0" cx="59.9" cy="589.5" r="4.3"/>
		</g>
		<g id="LWPOLYLINE_18_">
			<rect x="17.4" y="561.2" class="st0" width="42.5" height="17"/>
		</g>
		<g id="CIRCLE_12_">
			<circle class="st0" cx="453.9" cy="589.5" r="4.3"/>
		</g>
		<g id="LWPOLYLINE_19_">
			<rect x="453.9" y="561.2" class="st0" width="42.5" height="17"/>
		</g>
		<g id="LWPOLYLINE_20_">
			<rect x="-25.1" y="555.5" class="st0" width="564.1" height="45.4"/>
		</g>
	</g>
	<g>
		<g id="CIRCLE_13_">
			<circle class="st0" cx="453.9" cy="541.9" r="4.3"/>
		</g>
		<g id="CIRCLE_14_">
			<circle class="st0" cx="59.9" cy="541.9" r="4.3"/>
		</g>
		<g id="LWPOLYLINE_21_">
			<rect x="453.9" y="513.5" class="st0" width="42.5" height="17"/>
		</g>
		<g id="LWPOLYLINE_22_">
			<rect x="17.4" y="513.5" class="st0" width="42.5" height="17"/>
		</g>
		<g id="LWPOLYLINE_23_">
			<polygon class="st0" points="-25.1,553.2 -25.1,507.9 -33.6,507.9 -33.6,465.3 -25.1,465.3 -25.1,414.3 539,414.3 539,465.3 
				547.5,465.3 547.5,507.9 539,507.9 539,553.2 			"/>
		</g>
	</g>
	<g>
		<g id="CIRCLE_15_">
			<circle class="st0" cx="453.9" cy="284" r="4.3"/>
		</g>
		<g id="CIRCLE_16_">
			<circle class="st0" cx="59.9" cy="284" r="4.3"/>
		</g>
		<g id="LWPOLYLINE_24_">
			<rect x="453.9" y="295.3" class="st0" width="42.5" height="17"/>
		</g>
		<g id="LWPOLYLINE_25_">
			<rect x="17.4" y="295.3" class="st0" width="42.5" height="17"/>
		</g>
		<g id="LWPOLYLINE_26_">
			<polygon class="st0" points="-25.1,318 -25.1,272.6 539,272.6 539,318 547.5,318 547.5,360.5 539,360.5 539,411.5 -25.1,411.5 
				-25.1,360.5 -33.6,360.5 -33.6,318 			"/>
		</g>
	</g>
	<g id="LWPOLYLINE_27_">
		<rect x="-27.2" y="211.7" class="st0" width="530.1" height="56.7"/>
	</g>
	<g id="LWPOLYLINE_28_">
		<rect x="-28.4" y="151.5" class="st0" width="544.3" height="56.7"/>
	</g>
	<g>
		<g id="LWPOLYLINE_29_">
			<polygon class="st0" points="-175.2,647.8 -175.2,191.4 -124.2,191.4 -124.2,199.9 -81.7,199.9 -81.7,191.4 -36.3,191.4 
				-36.3,647.8 -81.7,647.8 -81.7,639.3 -124.2,639.3 -124.2,647.8 			"/>
		</g>
		<g id="LWPOLYLINE_30_">
			<rect x="-76" y="545.7" class="st0" width="17" height="42.5"/>
		</g>
		<g id="LWPOLYLINE_31_">
			<rect x="-76" y="250.9" class="st0" width="17" height="42.5"/>
		</g>
		<g id="CIRCLE_17_">
			<circle class="st0" cx="-107.2" cy="348.7" r="7.1"/>
		</g>
		<g id="CIRCLE_18_">
			<circle class="st0" cx="-107.2" cy="490.4" r="7.1"/>
		</g>
	</g>
	<g>
		<g id="LWPOLYLINE_33_">
			<rect x="-295.2" y="545.7" class="st0" width="17" height="42.5"/>
		</g>
		<g id="LWPOLYLINE_34_">
			<rect x="-295.2" y="398.3" class="st0" width="17" height="42.5"/>
		</g>
		<g id="LWPOLYLINE_35_">
			<rect x="-295.2" y="250.9" class="st0" width="17" height="42.5"/>
		</g>
		<g id="LWPOLYLINE_36_">
			<rect x="-266.8" y="421" class="st0" width="73.7" height="184.3"/>
		</g>
		<g id="CIRCLE_19_">
			<circle class="st0" cx="-286.7" cy="493.3" r="1.4"/>
		</g>
		<g id="LWPOLYLINE_37_">
			<path class="st0" d="M-179,191.4v42.5h-19.8c-3.9,0-7.1,3.2-7.1,7.1s3.2,7.1,7.1,7.1h19.8v399.7h-51v-8.5h-42.5v8.5h-45.4V191.4
				h45.4v8.5h42.5v-8.5H-179z"/>
		</g>
	</g>
	<g>
		<g id="CUT_x5F_BACK">
			<g id="LWPOLYLINE_40_">
				<rect x="772.2" y="536.1" class="st0" width="28.3" height="42.5"/>
			</g>
			<g id="LWPOLYLINE_39_">
				<rect x="766.5" y="407.1" class="st0" width="8.5" height="87.9"/>
			</g>
			<g id="LWPOLYLINE_38_">
				<rect x="743.8" y="531.9" class="st0" width="14.2" height="25.5"/>
			</g>
			<g id="LWPOLYLINE_32_">
				<polygon class="st0" points="730.6,611.2 730.6,378.8 829.9,378.8 829.9,619.7 736.3,619.7 736.3,611.2 				"/>
			</g>
		</g>
		<g id="MARK">
			<path class="st1" d="M747.5,454.3c-2.2,0.6-3.3,3-3.3,7.4c0,2.1,0.3,3.9,0.9,5.3c0.6,1.5,1.4,2.2,2.3,2.2c0.7,0,1.2-0.3,1.6-1
				c0.3-0.5,0.6-1.5,1-3l1.9-7c0.4-1.7,0.9-2.8,1.2-3.4c0.5-0.8,1.1-1.2,1.9-1.2c0.9,0,1.7,0.8,2.4,2.4c0.7,1.6,1,3.5,1,5.6
				c0,2.3-0.3,4.2-1,5.7c-0.7,1.5-1.5,2.3-2.4,2.3c0,0,0,0,0-0.1c0,0,0-0.1,0-0.1c1,0,1.8-0.8,2.4-2.3c0.6-1.5,1-3.4,1-5.6
				c0-2.1-0.3-3.9-1-5.5c-0.6-1.6-1.4-2.4-2.3-2.4c-0.8,0-1.4,0.4-1.9,1.1c-0.4,0.6-0.8,1.7-1.2,3.4l-1.9,7c-0.4,1.5-0.7,2.5-1,3
				c-0.4,0.7-0.9,1-1.6,1c-0.9,0-1.7-0.8-2.3-2.3c-0.6-1.5-1-3.3-1-5.4c0-2.1,0.3-3.8,0.8-5.1C745.5,455.2,746.4,454.4,747.5,454.3
				C747.5,454.1,747.5,454.2,747.5,454.3C747.5,454.2,747.5,454.3,747.5,454.3z"/>
			<path class="st2" d="M744.3,439.3c0-2,0.3-3.6,0.8-4.9c0.6-1.3,1.3-1.9,2.2-1.9h7.9c0.9,0,1.6,0.6,2.2,1.9
				c0.6,1.3,0.8,2.9,0.8,4.9v8.6c0,0,0,0.1,0,0.1h-13.9c0,0,0,0,0-0.1V439.3z M744.3,439.3v8.5h13.9v-8.5c0-1.9-0.3-3.5-0.8-4.8
				c-0.6-1.3-1.3-1.9-2.1-1.9h-7.9c-0.9,0-1.6,0.6-2.1,1.9C744.6,435.7,744.3,437.3,744.3,439.3z"/>
			<g>
				<path class="st2" d="M801.9,566.4h9.7c0.9,0,1.7,0.5,2.4,1.6c0.6,1,0.9,2.2,0.9,3.5c0,1.3-0.3,2.5-0.9,3.6
					c-0.6,1.1-1.4,1.6-2.4,1.6h-9.7c0,0,0,0,0,0c0,0,0,0,0,0h9.7c0.9,0,1.7-0.5,2.3-1.6c0.6-1,0.8-2.2,0.8-3.5
					c0-1.3-0.3-2.5-0.8-3.5c-0.6-1.1-1.4-1.6-2.3-1.6L801.9,566.4C801.9,566.5,801.9,566.5,801.9,566.4
					C801.9,566.4,801.9,566.4,801.9,566.4z"/>
				<path class="st2" d="M804.9,552.3c-2,0.4-3,2-3,5c0,1.4,0.3,2.6,0.9,3.6c0.6,1,1.3,1.5,2.1,1.5c0.6,0,1.1-0.2,1.4-0.7
					c0.3-0.3,0.6-1,0.9-2l1.7-4.7c0.4-1.1,0.8-1.9,1.1-2.3c0.4-0.5,1-0.8,1.8-0.8c0.9,0,1.6,0.5,2.2,1.6c0.6,1.1,0.9,2.3,0.9,3.7
					c0,1.5-0.3,2.8-0.9,3.8c-0.6,1-1.3,1.5-2.2,1.5c0,0,0,0,0,0s0,0,0,0c0.9,0,1.6-0.5,2.2-1.5c0.6-1,0.9-2.3,0.9-3.8
					c0-1.4-0.3-2.6-0.9-3.7c-0.6-1.1-1.3-1.6-2.1-1.6c-0.7,0-1.3,0.3-1.7,0.8c-0.3,0.4-0.7,1.2-1.1,2.3l-1.7,4.7c-0.4,1-0.7,1.7-1,2
					c-0.4,0.5-0.8,0.7-1.5,0.7c-0.9,0-1.6-0.5-2.2-1.5s-0.9-2.2-0.9-3.6c0-1.4,0.3-2.6,0.8-3.5C803,552.9,803.8,552.4,804.9,552.3
					C804.9,552.2,804.9,552.2,804.9,552.3C804.9,552.3,804.9,552.3,804.9,552.3z"/>
				<path class="st2" d="M808.2,548.3v-5c0-1.4-0.3-2.6-0.9-3.6c-0.6-1-1.3-1.5-2.2-1.5c-0.9,0-1.6,0.5-2.2,1.5
					c-0.6,1-0.9,2.2-0.9,3.6v4.9h12.7v-4.9c0-1.5-0.3-2.7-0.9-3.7c-0.6-1.1-1.4-1.6-2.4-1.6c-0.9,0-1.7,0.5-2.3,1.6
					c-0.6,1-0.9,2.3-0.9,3.7c0,0,0,0,0,0s0,0,0,0c0-1.5,0.3-2.7,0.9-3.8c0.6-1.1,1.4-1.6,2.4-1.6c1,0,1.8,0.5,2.4,1.6
					c0.6,1,0.9,2.3,0.9,3.8v5c0,0,0,0,0,0h-12.8c0,0,0,0,0,0v-5c0-1.4,0.3-2.6,0.9-3.6c0.6-1,1.4-1.5,2.2-1.5c0.9,0,1.6,0.5,2.2,1.5
					c0.6,1,0.9,2.2,0.9,3.6L808.2,548.3C808.2,548.3,808.2,548.4,808.2,548.3C808.2,548.4,808.2,548.3,808.2,548.3z"/>
			</g>
			<g>
				<path class="st2" d="M758.1,521.1c0,1.3-0.3,2.4-0.8,3.3c-0.6,0.9-1.2,1.3-2,1.3H747c-0.8,0-1.5-0.4-2-1.3
					c-0.6-0.9-0.8-2-0.8-3.3c0-1.3,0.3-2.4,0.8-3.3s1.2-1.3,2-1.3h8.2c0.8,0,1.5,0.4,2,1.3S758.1,519.8,758.1,521.1z M758,521.1
					c0-1.3-0.3-2.3-0.8-3.2c-0.5-0.9-1.2-1.3-2-1.3H747c-0.8,0-1.5,0.4-2,1.3c-0.5,0.9-0.8,2-0.8,3.2c0,1.2,0.3,2.3,0.8,3.2
					s1.2,1.3,2,1.3h8.2c0.8,0,1.5-0.4,2-1.3S758,522.3,758,521.1z"/>
				<path class="st2" d="M746.7,569.3l-2.7-3.4c0,0,0,0,0,0v-0.8c0,0,0,0,0,0h13.7c0,0,0,0,0,0s0,0,0,0h-13.7v0.8L746.7,569.3
					C746.8,569.3,746.8,569.3,746.7,569.3C746.8,569.3,746.8,569.3,746.7,569.3z"/>
			</g>
			<path class="st1" d="M803.7,411.8h-50c-0.4,0-0.7,0.1-1,0.4l-14.4,14.4c-0.2,0.2-0.4,0.6-0.4,0.9v61.2c0,0.8,0.7,1.5,1.5,1.5
				h64.3"/>
		</g>
	</g>
</g>
<g id="engrave">
	<g>
		<path class="st3" d="M-129.3,289.3c0.7,0,1.5,0.1,2.2,0.4c0.7,0.3,1.4,0.7,1.9,1.2c0.6,0.5,1,1.1,1.4,1.9c0.4,0.7,0.5,1.6,0.5,2.5
			c0,1.1-0.2,2.1-0.7,2.9c-0.5,0.8-1.1,1.4-1.9,1.8l-1.2-1.8c0.3-0.2,0.6-0.4,0.9-0.6c0.2-0.2,0.4-0.5,0.6-0.7
			c0.1-0.3,0.2-0.5,0.3-0.8c0.1-0.3,0.1-0.6,0.1-0.8c0-0.6-0.1-1.1-0.4-1.5c-0.2-0.4-0.5-0.8-0.9-1.1c-0.4-0.3-0.8-0.5-1.3-0.7
			c-0.5-0.1-1-0.2-1.4-0.2c-0.5,0-1,0.1-1.5,0.3s-0.9,0.4-1.3,0.7c-0.4,0.3-0.7,0.7-0.9,1.1c-0.2,0.4-0.3,0.9-0.3,1.4
			c0,0.3,0,0.6,0.1,0.9c0.1,0.3,0.2,0.6,0.3,0.8c0.1,0.3,0.3,0.5,0.6,0.7c0.2,0.2,0.5,0.4,0.8,0.5l-1.1,1.9
			c-0.5-0.2-0.9-0.5-1.2-0.8c-0.3-0.4-0.6-0.8-0.9-1.2c-0.2-0.4-0.4-0.9-0.5-1.4c-0.1-0.5-0.2-1-0.2-1.5c0-0.9,0.2-1.6,0.5-2.4
			c0.4-0.7,0.8-1.3,1.4-1.8s1.2-0.9,2-1.2S-130.1,289.3-129.3,289.3z"/>
		<path class="st3" d="M-135.6,303.9c0-0.4,0.1-0.8,0.2-1.2c0.1-0.4,0.3-0.7,0.6-1s0.6-0.5,0.9-0.6c0.3-0.2,0.7-0.2,1.1-0.2
			c0.4,0,0.8,0.1,1.2,0.3c0.4,0.2,0.7,0.4,0.9,0.8c0.2,0.3,0.4,0.7,0.6,1.2c0.1,0.5,0.2,1,0.2,1.5c0,0.4,0,0.8-0.1,1.2
			c-0.1,0.4-0.2,0.7-0.3,1h0.5c0.6,0,1-0.2,1.4-0.5c0.3-0.3,0.5-0.8,0.5-1.5c0-0.5-0.1-0.9-0.3-1.4s-0.4-0.9-0.7-1.4l1.4-0.7
			c0.8,1.1,1.1,2.4,1.1,3.7c0,1.3-0.3,2.3-0.9,3c-0.6,0.7-1.5,1.1-2.7,1.1h-2.8c-0.2,0-0.4,0-0.5,0.1c-0.1,0.1-0.2,0.2-0.2,0.4h-1.9
			c-0.1-0.4-0.1-0.7-0.1-1c0-0.4,0.1-0.8,0.3-1s0.4-0.4,0.8-0.4l0.5-0.1c-0.5-0.4-0.9-0.9-1.2-1.4
			C-135.5,305.2-135.6,304.6-135.6,303.9z M-133.9,304.6c0,0.4,0.1,0.8,0.2,1.1s0.3,0.6,0.5,0.8c0.2,0.2,0.4,0.4,0.6,0.4h1
			c0.1-0.3,0.2-0.6,0.2-0.9s0.1-0.6,0.1-0.9c0-0.6-0.1-1.1-0.4-1.4c-0.3-0.4-0.6-0.6-1-0.6c-0.4,0-0.7,0.1-1,0.4
			C-133.8,303.8-133.9,304.1-133.9,304.6z"/>
		<path class="st3" d="M-135.6,316.6c0-0.7,0.2-1.3,0.5-1.8c0.3-0.5,0.7-0.9,1.3-1.2h-5.2v-2.3h12.5v2h-1.5c0.5,0.3,0.9,0.8,1.2,1.3
			c0.3,0.5,0.5,1.1,0.5,1.8c0,0.6-0.1,1.2-0.4,1.7c-0.2,0.5-0.6,0.9-1,1.3c-0.4,0.4-0.9,0.7-1.5,0.9c-0.6,0.2-1.2,0.3-1.8,0.3
			c-0.6,0-1.3-0.1-1.8-0.3c-0.6-0.2-1.1-0.5-1.5-0.8s-0.7-0.8-1-1.2C-135.5,317.7-135.6,317.1-135.6,316.6z M-133.7,315.8
			c0,0.3,0.1,0.7,0.2,0.9c0.1,0.3,0.3,0.5,0.6,0.7s0.5,0.4,0.9,0.5c0.3,0.1,0.7,0.2,1,0.2c0.4,0,0.7-0.1,1-0.2
			c0.3-0.1,0.6-0.3,0.8-0.5c0.2-0.2,0.4-0.5,0.6-0.8c0.1-0.3,0.2-0.6,0.2-1c0-0.2,0-0.4-0.1-0.7c-0.1-0.2-0.2-0.4-0.3-0.6
			c-0.1-0.2-0.3-0.4-0.5-0.5c-0.2-0.2-0.4-0.3-0.6-0.3h-2.1c-0.5,0.2-0.9,0.5-1.3,0.9C-133.5,314.9-133.7,315.3-133.7,315.8z"/>
		<path class="st3" d="M-135.6,326.1c0-0.7,0.1-1.4,0.4-2c0.2-0.6,0.6-1.1,1-1.5c0.4-0.4,0.9-0.7,1.5-0.9c0.6-0.2,1.1-0.3,1.8-0.3
			c0.6,0,1.2,0.1,1.8,0.3c0.6,0.2,1,0.5,1.5,0.9c0.4,0.4,0.8,0.9,1,1.5c0.2,0.6,0.4,1.2,0.4,2s-0.1,1.4-0.4,1.9
			c-0.2,0.6-0.6,1.1-1,1.5c-0.4,0.4-0.9,0.7-1.5,0.9c-0.6,0.2-1.1,0.3-1.8,0.3c-0.6,0-1.2-0.1-1.8-0.3c-0.6-0.2-1-0.5-1.5-0.9
			c-0.4-0.4-0.8-0.9-1-1.5S-135.6,326.9-135.6,326.1z M-131,323.8c-0.4,0-0.8,0.1-1.1,0.2s-0.6,0.3-0.8,0.5
			c-0.2,0.2-0.4,0.5-0.6,0.7c-0.1,0.3-0.2,0.6-0.2,0.9s0.1,0.6,0.2,0.9c0.1,0.3,0.3,0.5,0.6,0.7c0.2,0.2,0.5,0.4,0.9,0.5
			c0.3,0.1,0.7,0.2,1.1,0.2c0.4,0,0.7-0.1,1.1-0.2c0.3-0.1,0.6-0.3,0.8-0.5c0.2-0.2,0.4-0.5,0.6-0.7c0.1-0.3,0.2-0.6,0.2-0.9
			s-0.1-0.6-0.2-0.9s-0.3-0.5-0.6-0.7c-0.2-0.2-0.5-0.4-0.9-0.5S-130.6,323.8-131,323.8z"/>
		<path class="st3" d="M-135,337.5c-0.1-0.3-0.3-0.7-0.4-1.1s-0.2-0.9-0.2-1.4c0-0.3,0-0.6,0.1-0.9s0.2-0.5,0.4-0.7
			c0.2-0.2,0.4-0.4,0.7-0.5s0.6-0.2,1-0.2h5.1v-1.2h1.8v1.2h2.9v2.3h-2.9v1.9h-1.8V335h-4.4c-0.3,0-0.5,0.1-0.7,0.2
			c-0.1,0.2-0.2,0.4-0.2,0.6c0,0.2,0,0.5,0.1,0.7c0.1,0.2,0.1,0.4,0.2,0.5L-135,337.5z"/>
		<path class="st3" d="M-135.5,348.2c0-0.9,0.2-1.7,0.5-2.4s0.8-1.3,1.4-1.9s1.2-0.9,2-1.2c0.7-0.3,1.5-0.4,2.3-0.4
			c0.8,0,1.6,0.2,2.3,0.5c0.7,0.3,1.4,0.7,2,1.2c0.6,0.5,1,1.2,1.4,1.9c0.3,0.7,0.5,1.5,0.5,2.4c0,0.9-0.2,1.7-0.5,2.4
			c-0.4,0.7-0.8,1.3-1.4,1.8c-0.6,0.5-1.2,0.9-2,1.2c-0.7,0.3-1.5,0.4-2.2,0.4c-0.8,0-1.6-0.1-2.3-0.4c-0.7-0.3-1.4-0.7-1.9-1.2
			c-0.6-0.5-1-1.1-1.3-1.9C-135.4,349.8-135.5,349-135.5,348.2z M-129.4,344.7c-0.5,0-1,0.1-1.5,0.2c-0.5,0.2-0.9,0.4-1.3,0.7
			c-0.4,0.3-0.7,0.7-0.9,1.1c-0.2,0.4-0.3,0.9-0.3,1.5c0,0.6,0.1,1.1,0.3,1.5c0.2,0.4,0.5,0.8,0.9,1.1c0.4,0.3,0.8,0.5,1.3,0.7
			c0.5,0.2,1,0.2,1.5,0.2c0.5,0,1-0.1,1.5-0.2c0.5-0.2,0.9-0.4,1.3-0.7s0.7-0.7,0.9-1.1c0.2-0.4,0.3-0.9,0.3-1.5
			c0-0.6-0.1-1.1-0.3-1.5c-0.2-0.4-0.5-0.8-0.9-1.1c-0.4-0.3-0.8-0.5-1.3-0.7C-128.4,344.8-128.9,344.7-129.4,344.7z"/>
		<path class="st3" d="M-135.6,358.4c0-0.9,0.3-1.6,0.9-2.1s1.5-0.7,2.6-0.7h5.6v2.3h-5.1c-1.4,0-2.1,0.5-2.1,1.5
			c0,0.4,0.1,0.9,0.4,1.3c0.3,0.4,0.7,0.8,1.2,1h5.5v2.3h-6.3c-0.2,0-0.4,0-0.5,0.1c-0.1,0.1-0.2,0.2-0.2,0.4h-1.9
			c0-0.2-0.1-0.4-0.1-0.6c0-0.2,0-0.3,0-0.4c0-0.4,0.1-0.7,0.3-1c0.2-0.3,0.4-0.4,0.8-0.5l0.7-0.1c-0.6-0.4-1.1-0.9-1.4-1.5
			C-135.5,359.8-135.6,359.1-135.6,358.4z"/>
		<path class="st3" d="M-135.4,368.6l8.9-3.3v2.3l-7.1,2.3l7.1,2.3v2.1l-8.9-3.3V368.6z"/>
		<path class="st3" d="M-135.6,379.3c0-0.7,0.1-1.4,0.4-1.9c0.2-0.6,0.6-1.1,1-1.5c0.4-0.4,0.9-0.7,1.5-0.9c0.6-0.2,1.1-0.3,1.8-0.3
			c0.6,0,1.2,0.1,1.8,0.3c0.6,0.2,1.1,0.5,1.5,0.9c0.4,0.4,0.8,0.9,1,1.5c0.2,0.6,0.4,1.2,0.4,2c0,0.7-0.1,1.4-0.4,1.9
			c-0.2,0.6-0.6,1.1-1,1.5c-0.4,0.4-0.9,0.7-1.5,0.9c-0.6,0.2-1.1,0.3-1.7,0.3c-0.1,0-0.3,0-0.4,0c-0.1,0-0.2,0-0.3,0v-6.9
			c-0.4,0-0.7,0.1-0.9,0.3c-0.3,0.1-0.5,0.3-0.7,0.5s-0.3,0.5-0.4,0.7c-0.1,0.3-0.2,0.6-0.2,0.9c0,0.5,0.1,0.9,0.3,1.3
			c0.2,0.4,0.5,0.7,0.9,0.8l-0.5,2c-0.7-0.3-1.2-0.9-1.7-1.6C-135.4,381.2-135.6,380.3-135.6,379.3z M-130.2,381.6
			c0.7-0.1,1.2-0.3,1.6-0.7c0.4-0.4,0.6-1,0.6-1.6c0-0.3-0.1-0.6-0.2-0.9c-0.1-0.3-0.3-0.5-0.5-0.7s-0.4-0.4-0.7-0.5
			c-0.3-0.1-0.6-0.2-0.9-0.2V381.6z"/>
		<path class="st3" d="M-128.5,390.7c0-0.7-0.1-1.3-0.4-1.9s-0.6-0.9-1.1-1.2h-5.4v-2.3h8.9v2.1h-1.9c0.3,0.2,0.6,0.3,0.8,0.6
			c0.2,0.2,0.5,0.4,0.6,0.7s0.3,0.5,0.4,0.8c0.1,0.3,0.1,0.5,0.1,0.7c0,0.1,0,0.2,0,0.3s0,0.1,0,0.2H-128.5z"/>
		<path class="st3" d="M-135,397.3c-0.1-0.3-0.3-0.7-0.4-1.1s-0.2-0.9-0.2-1.4c0-0.3,0-0.6,0.1-0.9c0.1-0.3,0.2-0.5,0.4-0.7
			s0.4-0.4,0.7-0.5c0.3-0.1,0.6-0.2,1-0.2h5.1v-1.2h1.8v1.2h2.9v2.3h-2.9v1.9h-1.8v-1.9h-4.4c-0.3,0-0.5,0.1-0.7,0.2
			c-0.1,0.2-0.2,0.4-0.2,0.6s0,0.5,0.1,0.7s0.1,0.4,0.2,0.5L-135,397.3z"/>
	</g>
	<g>
		<path class="st3" d="M-135.4,433.3h12.1v5.1c0,0.6-0.1,1.1-0.3,1.5c-0.2,0.5-0.5,0.9-0.9,1.2c-0.4,0.3-0.8,0.6-1.3,0.8
			c-0.5,0.2-1,0.3-1.5,0.3c-0.5,0-1-0.1-1.5-0.3c-0.5-0.2-0.9-0.4-1.3-0.8c-0.4-0.3-0.7-0.7-0.9-1.2c-0.2-0.5-0.3-1-0.3-1.5v-2.9h-4
			V433.3z M-129.3,435.6v2.7c0,0.4,0.2,0.8,0.5,1.1s0.8,0.4,1.4,0.4c0.3,0,0.6,0,0.8-0.1c0.2-0.1,0.5-0.2,0.6-0.4s0.3-0.3,0.4-0.5
			s0.1-0.4,0.1-0.6v-2.6H-129.3z"/>
		<path class="st3" d="M-135.6,447.6c0-0.7,0.1-1.4,0.4-1.9c0.2-0.6,0.6-1.1,1-1.5c0.4-0.4,0.9-0.7,1.5-0.9c0.6-0.2,1.1-0.3,1.8-0.3
			c0.6,0,1.2,0.1,1.8,0.3c0.6,0.2,1.1,0.5,1.5,0.9c0.4,0.4,0.8,0.9,1,1.5c0.2,0.6,0.4,1.2,0.4,2c0,0.7-0.1,1.4-0.4,1.9
			c-0.2,0.6-0.6,1.1-1,1.5c-0.4,0.4-0.9,0.7-1.5,0.9c-0.6,0.2-1.1,0.3-1.7,0.3c-0.1,0-0.3,0-0.4,0c-0.1,0-0.2,0-0.3,0v-6.9
			c-0.4,0-0.7,0.1-0.9,0.3c-0.3,0.1-0.5,0.3-0.7,0.5s-0.3,0.5-0.4,0.7c-0.1,0.3-0.2,0.6-0.2,0.8c0,0.5,0.1,0.9,0.3,1.3
			c0.2,0.4,0.5,0.7,0.9,0.8l-0.5,2c-0.7-0.3-1.2-0.9-1.7-1.6S-135.6,448.6-135.6,447.6z M-130.2,449.9c0.7-0.1,1.2-0.3,1.6-0.7
			s0.6-1,0.6-1.6c0-0.3-0.1-0.6-0.2-0.9c-0.1-0.3-0.3-0.5-0.5-0.7s-0.4-0.4-0.7-0.5c-0.3-0.1-0.6-0.2-0.9-0.2V449.9z"/>
		<path class="st3" d="M-135.6,457c0-0.7,0.1-1.5,0.4-2.2c0.2-0.7,0.6-1.3,1-1.8l1.4,0.8c-0.4,0.5-0.7,1.1-0.9,1.6s-0.3,1-0.3,1.5
			c0,0.5,0.1,0.8,0.3,1.1s0.4,0.4,0.7,0.4s0.5-0.2,0.7-0.5c0.1-0.3,0.3-0.8,0.5-1.5c0.2-0.6,0.3-1.1,0.5-1.5c0.1-0.4,0.3-0.7,0.5-1
			c0.2-0.2,0.4-0.4,0.6-0.5c0.2-0.1,0.5-0.2,0.9-0.2c0.5,0,0.9,0.1,1.2,0.3c0.4,0.2,0.7,0.4,0.9,0.7c0.3,0.3,0.5,0.7,0.6,1.1
			c0.1,0.4,0.2,0.9,0.2,1.4c0,0.7-0.1,1.3-0.3,1.9c-0.2,0.6-0.5,1.1-0.9,1.6l-1.4-0.9c0.3-0.5,0.6-0.9,0.7-1.3
			c0.2-0.4,0.2-0.8,0.2-1.3c0-0.4-0.1-0.7-0.2-1c-0.2-0.3-0.4-0.4-0.8-0.4c-0.2,0-0.3,0-0.4,0.1c-0.1,0.1-0.2,0.2-0.3,0.3
			c-0.1,0.1-0.2,0.3-0.2,0.5s-0.2,0.5-0.2,0.8c-0.2,0.6-0.3,1.1-0.5,1.6c-0.2,0.4-0.3,0.8-0.5,1.1c-0.2,0.3-0.4,0.5-0.7,0.6
			c-0.3,0.1-0.6,0.2-1,0.2c-0.9,0-1.6-0.3-2.1-1C-135.4,459-135.6,458.1-135.6,457z"/>
		<path class="st3" d="M-135.6,466.2c0-0.7,0.1-1.4,0.4-1.9c0.2-0.6,0.6-1.1,1-1.5c0.4-0.4,0.9-0.7,1.5-0.9c0.6-0.2,1.1-0.3,1.8-0.3
			c0.6,0,1.2,0.1,1.8,0.3c0.6,0.2,1.1,0.5,1.5,0.9c0.4,0.4,0.8,0.9,1,1.5c0.2,0.6,0.4,1.2,0.4,2c0,0.7-0.1,1.4-0.4,1.9
			c-0.2,0.6-0.6,1.1-1,1.5c-0.4,0.4-0.9,0.7-1.5,0.9c-0.6,0.2-1.1,0.3-1.7,0.3c-0.1,0-0.3,0-0.4,0c-0.1,0-0.2,0-0.3,0V464
			c-0.4,0-0.7,0.1-0.9,0.3c-0.3,0.1-0.5,0.3-0.7,0.5s-0.3,0.5-0.4,0.7c-0.1,0.3-0.2,0.6-0.2,0.8c0,0.5,0.1,0.9,0.3,1.3
			c0.2,0.4,0.5,0.7,0.9,0.8l-0.5,2c-0.7-0.3-1.2-0.9-1.7-1.6S-135.6,467.2-135.6,466.2z M-130.2,468.5c0.7-0.1,1.2-0.3,1.6-0.7
			s0.6-1,0.6-1.6c0-0.3-0.1-0.6-0.2-0.9c-0.1-0.3-0.3-0.5-0.5-0.7s-0.4-0.4-0.7-0.5c-0.3-0.1-0.6-0.2-0.9-0.2V468.5z M-125.5,466.8
			l0.4-1.5l2,0.9v2.1L-125.5,466.8z"/>
		<path class="st3" d="M-135.6,476.4c0-0.7,0.1-1.4,0.4-1.9c0.2-0.6,0.6-1.1,1-1.5c0.4-0.4,0.9-0.7,1.5-0.9c0.6-0.2,1.1-0.3,1.8-0.3
			c0.6,0,1.2,0.1,1.8,0.3c0.6,0.2,1.1,0.5,1.5,0.9c0.4,0.4,0.8,0.9,1,1.5c0.2,0.6,0.4,1.2,0.4,2c0,0.7-0.1,1.4-0.4,1.9
			c-0.2,0.6-0.6,1.1-1,1.5c-0.4,0.4-0.9,0.7-1.5,0.9c-0.6,0.2-1.1,0.3-1.7,0.3c-0.1,0-0.3,0-0.4,0c-0.1,0-0.2,0-0.3,0v-6.9
			c-0.4,0-0.7,0.1-0.9,0.3c-0.3,0.1-0.5,0.3-0.7,0.5s-0.3,0.5-0.4,0.7c-0.1,0.3-0.2,0.6-0.2,0.8c0,0.5,0.1,0.9,0.3,1.3
			c0.2,0.4,0.5,0.7,0.9,0.8l-0.5,2c-0.7-0.3-1.2-0.9-1.7-1.6S-135.6,477.4-135.6,476.4z M-130.2,478.7c0.7-0.1,1.2-0.3,1.6-0.7
			s0.6-1,0.6-1.6c0-0.3-0.1-0.6-0.2-0.9c-0.1-0.3-0.3-0.5-0.5-0.7s-0.4-0.4-0.7-0.5c-0.3-0.1-0.6-0.2-0.9-0.2V478.7z"/>
		<path class="st3" d="M-133.4,495.2h-2.1v-8.4h12.1v8.2h-2.1v-5.9h-2.9v5.1h-1.9v-5.1h-3.1V495.2z"/>
		<path class="st3" d="M-135.4,504.9v-2.3h5c0.7,0,1.2-0.1,1.6-0.4c0.3-0.2,0.5-0.6,0.5-1c0-0.2,0-0.5-0.1-0.7
			c-0.1-0.2-0.2-0.5-0.4-0.7c-0.2-0.2-0.4-0.4-0.6-0.6c-0.2-0.2-0.5-0.3-0.7-0.4h-5.2v-2.3h8.9v2.1h-1.6c0.6,0.3,1,0.8,1.3,1.4
			c0.3,0.6,0.5,1.3,0.5,2.1c0,0.6-0.1,1-0.3,1.4c-0.2,0.4-0.5,0.6-0.8,0.8c-0.3,0.2-0.7,0.3-1.1,0.4c-0.4,0.1-0.8,0.1-1.3,0.1
			H-135.4z"/>
		<path class="st3" d="M-129.3,510.5c0.7,0,1.5,0.1,2.2,0.4c0.7,0.3,1.4,0.7,1.9,1.2c0.6,0.5,1,1.1,1.4,1.9c0.4,0.7,0.5,1.6,0.5,2.5
			c0,1.1-0.2,2.1-0.7,2.9s-1.1,1.4-1.9,1.8l-1.2-1.8c0.3-0.2,0.6-0.4,0.9-0.6s0.4-0.5,0.6-0.7s0.2-0.5,0.3-0.8
			c0.1-0.3,0.1-0.6,0.1-0.8c0-0.6-0.1-1.1-0.4-1.5s-0.5-0.8-0.9-1.1s-0.8-0.5-1.3-0.7c-0.5-0.1-1-0.2-1.4-0.2c-0.5,0-1,0.1-1.5,0.3
			s-0.9,0.4-1.3,0.7c-0.4,0.3-0.7,0.7-0.9,1.1c-0.2,0.4-0.3,0.9-0.3,1.4c0,0.3,0,0.6,0.1,0.8c0.1,0.3,0.2,0.6,0.3,0.8
			c0.1,0.3,0.3,0.5,0.6,0.7c0.2,0.2,0.5,0.4,0.8,0.5l-1.1,1.9c-0.5-0.2-0.9-0.5-1.2-0.8c-0.3-0.4-0.6-0.8-0.9-1.2
			c-0.2-0.4-0.4-0.9-0.5-1.4s-0.2-1-0.2-1.5c0-0.9,0.2-1.6,0.5-2.4c0.4-0.7,0.8-1.3,1.4-1.8c0.6-0.5,1.2-0.9,2-1.2
			C-130.8,510.6-130.1,510.5-129.3,510.5z"/>
		<path class="st3" d="M-135.6,526.8c0-0.7,0.1-1.4,0.4-2s0.6-1.1,1-1.5c0.4-0.4,0.9-0.7,1.5-0.9c0.6-0.2,1.1-0.3,1.8-0.3
			c0.6,0,1.2,0.1,1.8,0.3c0.6,0.2,1,0.5,1.5,0.9c0.4,0.4,0.8,0.9,1,1.5c0.2,0.6,0.4,1.2,0.4,2c0,0.7-0.1,1.4-0.4,1.9
			c-0.2,0.6-0.6,1.1-1,1.5c-0.4,0.4-0.9,0.7-1.5,0.9c-0.6,0.2-1.1,0.3-1.8,0.3c-0.6,0-1.2-0.1-1.8-0.3c-0.6-0.2-1-0.5-1.5-0.9
			c-0.4-0.4-0.8-0.9-1-1.5C-135.5,528.2-135.6,527.5-135.6,526.8z M-131,524.5c-0.4,0-0.8,0.1-1.1,0.2c-0.3,0.1-0.6,0.3-0.8,0.5
			c-0.2,0.2-0.4,0.5-0.6,0.7c-0.1,0.3-0.2,0.6-0.2,0.9c0,0.3,0.1,0.6,0.2,0.9c0.1,0.3,0.3,0.5,0.6,0.7c0.2,0.2,0.5,0.4,0.9,0.5
			c0.3,0.1,0.7,0.2,1.1,0.2c0.4,0,0.7-0.1,1.1-0.2c0.3-0.1,0.6-0.3,0.8-0.5s0.4-0.5,0.6-0.7c0.1-0.3,0.2-0.6,0.2-0.9
			c0-0.3-0.1-0.6-0.2-0.9c-0.1-0.3-0.3-0.5-0.6-0.7c-0.2-0.2-0.5-0.4-0.9-0.5C-130.3,524.5-130.6,524.5-131,524.5z"/>
		<path class="st3" d="M-135.6,535.7c0-0.9,0.3-1.6,0.9-2.1s1.5-0.7,2.6-0.7h5.6v2.3h-5.1c-1.4,0-2.1,0.5-2.1,1.5
			c0,0.4,0.1,0.9,0.4,1.3c0.3,0.4,0.7,0.8,1.2,1h5.5v2.3h-6.3c-0.2,0-0.4,0-0.5,0.1c-0.1,0.1-0.2,0.2-0.2,0.4h-1.9
			c0-0.2-0.1-0.4-0.1-0.6c0-0.2,0-0.3,0-0.4c0-0.4,0.1-0.7,0.3-1c0.2-0.3,0.4-0.4,0.8-0.5l0.7-0.1c-0.6-0.4-1.1-0.9-1.4-1.5
			C-135.5,537.1-135.6,536.4-135.6,535.7z"/>
		<path class="st3" d="M-128.5,548.8c0-0.7-0.1-1.3-0.4-1.9s-0.6-0.9-1.1-1.2h-5.4v-2.3h8.9v2.1h-1.9c0.3,0.2,0.6,0.3,0.8,0.6
			c0.2,0.2,0.5,0.4,0.6,0.7s0.3,0.5,0.4,0.8c0.1,0.3,0.1,0.5,0.1,0.7c0,0.1,0,0.2,0,0.3s0,0.1,0,0.2H-128.5z"/>
		<path class="st3" d="M-135.6,553.4c0-0.7,0.1-1.5,0.4-2.2c0.2-0.7,0.6-1.3,1-1.8l1.4,0.8c-0.4,0.5-0.7,1.1-0.9,1.6s-0.3,1-0.3,1.5
			c0,0.5,0.1,0.8,0.3,1.1s0.4,0.4,0.7,0.4s0.5-0.2,0.7-0.5c0.1-0.3,0.3-0.8,0.5-1.5c0.2-0.6,0.3-1.1,0.5-1.5c0.1-0.4,0.3-0.7,0.5-1
			c0.2-0.2,0.4-0.4,0.6-0.5c0.2-0.1,0.5-0.2,0.9-0.2c0.5,0,0.9,0.1,1.2,0.3c0.4,0.2,0.7,0.4,0.9,0.7c0.3,0.3,0.5,0.7,0.6,1.1
			c0.1,0.4,0.2,0.9,0.2,1.4c0,0.7-0.1,1.3-0.3,1.9c-0.2,0.6-0.5,1.1-0.9,1.6l-1.4-0.9c0.3-0.5,0.6-0.9,0.7-1.3
			c0.2-0.4,0.2-0.8,0.2-1.3c0-0.4-0.1-0.7-0.2-1c-0.2-0.3-0.4-0.4-0.8-0.4c-0.2,0-0.3,0-0.4,0.1c-0.1,0.1-0.2,0.2-0.3,0.3
			c-0.1,0.1-0.2,0.3-0.2,0.5s-0.2,0.5-0.2,0.8c-0.2,0.6-0.3,1.1-0.5,1.6c-0.2,0.4-0.3,0.8-0.5,1.1c-0.2,0.3-0.4,0.5-0.7,0.6
			c-0.3,0.1-0.6,0.2-1,0.2c-0.9,0-1.6-0.3-2.1-1C-135.4,555.4-135.6,554.5-135.6,553.4z"/>
	</g>
</g>
</svg>
