<?xml version="1.0" encoding="utf-8"?>
<!-- Generator: Adobe Illustrator 25.2.1, SVG Export Plug-In . SVG Version: 6.00 Build 0)  -->
<svg version="1.1" id="_x30_" xmlns="http://www.w3.org/2000/svg" xmlns:xlink="http://www.w3.org/1999/xlink" x="0px" y="0px"
	 width="612px" height="792px" viewBox="0 0 612 792" style="enable-background:new 0 0 612 792;" xml:space="preserve">
<style type="text/css">
	.st0{fill:none;stroke:#000000;stroke-width:0.7087;stroke-linecap:round;stroke-linejoin:round;stroke-miterlimit:10;}
</style>
<g>
	<g id="CIRCLE">
		<circle class="st0" cx="171.2" cy="287" r="7.1"/>
	</g>
	<g id="LWPOLYLINE">
		<polygon class="st0" points="542.6,77.2 542.6,318.2 556.8,318.2 556.8,496.7 12.5,496.7 12.5,77.2 		"/>
	</g>
</g>
<g>
	<g id="CIRCLE_1_">
		<circle class="st0" cx="53.8" cy="-47.1" r="7.1"/>
	</g>
	<g id="LWPOLYLINE_1_">
		<rect x="11.2" y="-160.5" class="st0" width="141.7" height="226.8"/>
	</g>
</g>
<g>
	<g id="CIRCLE_2_">
		<circle class="st0" cx="328.2" cy="-44.2" r="7.1"/>
	</g>
	<g id="LWPOLYLINE_3_">
		<rect x="229" y="-157.6" class="st0" width="141.7" height="226.8"/>
	</g>
</g>
<g>
	<g id="CIRCLE_3_">
		<circle class="st0" cx="54.7" cy="800.8" r="2.8"/>
	</g>
	<g id="CIRCLE_4_">
		<circle class="st0" cx="345" cy="876.2" r="4.3"/>
	</g>
	<g id="CIRCLE_5_">
		<circle class="st0" cx="160.5" cy="843.6" r="4.3"/>
	</g>
	<g id="CIRCLE_6_">
		<circle class="st0" cx="203" cy="843.6" r="4.3"/>
	</g>
	<g id="CIRCLE_7_">
		<circle class="st0" cx="408.3" cy="552.6" r="4.3"/>
	</g>
	<g id="CIRCLE_8_">
		<circle class="st0" cx="54.7" cy="534.3" r="2.8"/>
	</g>
	<g id="CIRCLE_9_">
		<circle class="st0" cx="250.3" cy="800.8" r="2.8"/>
	</g>
	<g id="CIRCLE_10_">
		<circle class="st0" cx="345" cy="904.6" r="4.3"/>
	</g>
	<g id="CIRCLE_11_">
		<circle class="st0" cx="132.1" cy="843.6" r="4.3"/>
	</g>
	<g id="CIRCLE_12_">
		<circle class="st0" cx="231.3" cy="843.6" r="4.3"/>
	</g>
	<g id="CIRCLE_13_">
		<circle class="st0" cx="408.3" cy="580.9" r="4.3"/>
	</g>
	<g id="CIRCLE_14_">
		<circle class="st0" cx="250.3" cy="534.3" r="2.8"/>
	</g>
	<g id="CIRCLE_15_">
		<circle class="st0" cx="311.2" cy="728.5" r="7.1"/>
	</g>
	<g id="LWPOLYLINE_5_">
		<polygon class="st0" points="114.2,500.3 114.2,517.3 508.2,517.3 508.2,500.3 550.7,500.3 550.7,517.3 593.3,517.3 593.3,559.8 
			601.8,559.8 601.8,602.4 593.3,602.4 593.3,700.2 584.7,700.2 584.7,756.8 593.3,756.8 593.3,854.6 601.8,854.6 601.8,897.2 
			593.3,897.2 593.3,939.7 550.7,939.7 550.7,956.7 508.2,956.7 508.2,939.7 114.2,939.7 114.2,956.7 71.7,956.7 71.7,939.7 
			29.2,939.7 29.2,897.2 12.1,897.2 12.1,854.6 29.2,854.6 29.2,749.8 12.1,749.8 12.1,707.2 29.2,707.2 29.2,602.4 12.1,602.4 
			12.1,559.8 29.2,559.8 29.2,517.3 71.7,517.3 71.7,500.3 		"/>
	</g>
</g>
<g id="LWPOLYLINE_6_">
	<polygon class="st0" points="377.6,-61.9 377.6,-157.6 434.2,-157.6 434.2,69.2 377.6,69.2 377.6,-26.6 413,-26.6 413,-61.9 	"/>
</g>
<g id="LWPOLYLINE_2_">
	<polygon class="st0" points="160.8,-64.8 160.8,-160.5 217.5,-160.5 217.5,66.2 160.8,66.2 160.8,-29.5 196.2,-29.5 196.2,-64.8 	
		"/>
</g>
</svg>
